<svg width="38" height="42" viewBox="0 0 38 42" fill="none" xmlns="http://www.w3.org/2000/svg">
<path d="M37.75 33.4998H6.5C5.94747 33.4998 5.41756 33.7193 5.02686 34.11C4.63616 34.5007 4.41667 35.0306 4.41667 35.5832C4.41667 36.1357 4.63616 36.6656 5.02686 37.0563C5.41756 37.447 5.94747 37.6665 6.5 37.6665H37.75V41.8332H6.5C4.8424 41.8332 3.25269 41.1747 2.08058 40.0026C0.90848 38.8305 0.25 37.2408 0.25 35.5832V4.33317C0.25 3.2281 0.688987 2.16829 1.47039 1.38689C2.25179 0.605491 3.3116 0.166504 4.41667 0.166504H37.75V33.4998ZM4.41667 29.4373C4.75417 29.3686 5.10208 29.3332 5.45833 29.3332H33.5833V4.33317H4.41667V29.4373ZM27.3333 14.7498H10.6667V10.5832H27.3333V14.7498Z" fill="#0B8FAC"/>
</svg>
