<svg width="22" height="22" viewBox="0 0 22 22" fill="none" xmlns="http://www.w3.org/2000/svg">
<path d="M18.1006 7.01367H20.4339C20.7433 7.01367 21.0401 7.11903 21.2589 7.30657C21.4777 7.4941 21.6006 7.74846 21.6006 8.01367V20.0137C21.6006 20.2789 21.4777 20.5332 21.2589 20.7208C21.0401 20.9083 20.7433 21.0137 20.4339 21.0137H1.76725C1.45783 21.0137 1.16109 20.9083 0.942295 20.7208C0.723502 20.5332 0.600586 20.2789 0.600586 20.0137V8.01367C0.600586 7.74846 0.723502 7.4941 0.942295 7.30657C1.16109 7.11903 1.45783 7.01367 1.76725 7.01367H4.10059V6.01367C4.10059 4.42237 4.83808 2.89625 6.15084 1.77103C7.46359 0.645813 9.24407 0.0136719 11.1006 0.0136719C12.9571 0.0136719 14.7376 0.645813 16.0503 1.77103C17.3631 2.89625 18.1006 4.42237 18.1006 6.01367V7.01367ZM15.7673 7.01367V6.01367C15.7673 4.95281 15.2756 3.93539 14.4004 3.18524C13.5252 2.4351 12.3383 2.01367 11.1006 2.01367C9.86291 2.01367 8.67592 2.4351 7.80075 3.18524C6.92558 3.93539 6.43392 4.95281 6.43392 6.01367V7.01367H15.7673ZM5.26725 10.0137V12.0137H7.60059V10.0137H5.26725ZM5.26725 13.0137V15.0137H7.60059V13.0137H5.26725ZM5.26725 16.0137V18.0137H7.60059V16.0137H5.26725Z" fill="#090909"/>
</svg>
