<svg width="20" height="20" viewBox="0 0 20 20" fill="none" xmlns="http://www.w3.org/2000/svg">
<path d="M7.95405 0.210215C9.30298 -0.0726514 10.6958 -0.0733324 12.045 0.208215C12.1349 0.801502 12.3574 1.3669 12.6958 1.86239C13.0343 2.35788 13.4801 2.77072 14 3.07021C14.5196 3.37075 15.1002 3.55028 15.6987 3.59547C16.2973 3.64065 16.8983 3.55033 17.457 3.33121C18.3753 4.35928 19.0709 5.56625 19.5 6.87622C19.0314 7.25079 18.6532 7.72616 18.3935 8.26701C18.1338 8.80785 17.9993 9.40026 18 10.0002C18 11.2642 18.586 12.3912 19.502 13.1242C19.0704 14.4331 18.3739 15.6391 17.456 16.6672C16.8974 16.4483 16.2966 16.358 15.6983 16.4032C15.0999 16.4484 14.5195 16.6278 14 16.9282C13.4805 17.2276 13.0351 17.6402 12.6968 18.1353C12.3585 18.6304 12.1361 19.1954 12.046 19.7882C10.6973 20.0717 9.30439 20.0731 7.95505 19.7922C7.86559 19.1984 7.64335 18.6324 7.30487 18.1364C6.96639 17.6403 6.52038 17.227 6.00005 16.9272C5.48041 16.6268 4.89975 16.4475 4.30124 16.4025C3.70272 16.3575 3.10176 16.448 2.54305 16.6672C1.62465 15.6389 0.929052 14.4315 0.500047 13.1212C0.96844 12.7468 1.34651 12.2718 1.60618 11.7313C1.86586 11.1909 2.00048 10.5988 2.00005 9.99921C2.00054 9.3991 1.86575 8.80658 1.60571 8.26573C1.34568 7.72488 0.96707 7.24959 0.498047 6.87522C0.929715 5.56634 1.62616 4.36032 2.54405 3.33221C3.1027 3.55117 3.70352 3.64141 4.30184 3.59623C4.90017 3.55104 5.48062 3.37159 6.00005 3.07121C6.51959 2.77181 6.96503 2.35924 7.30331 1.86412C7.64158 1.369 7.864 0.803056 7.95405 0.210215ZM10 13.0002C10.7957 13.0002 11.5588 12.6841 12.1214 12.1215C12.684 11.5589 13 10.7959 13 10.0002C13 9.20457 12.684 8.4415 12.1214 7.87889C11.5588 7.31629 10.7957 7.00022 10 7.00022C9.2044 7.00022 8.44134 7.31629 7.87873 7.87889C7.31612 8.4415 7.00005 9.20457 7.00005 10.0002C7.00005 10.7959 7.31612 11.5589 7.87873 12.1215C8.44134 12.6841 9.2044 13.0002 10 13.0002Z" fill="black"/>
</svg>
