<svg width="22" height="22" viewBox="0 0 22 22" fill="none" xmlns="http://www.w3.org/2000/svg">
<path d="M13.7809 17.2972L7.81885 14.217C7.24655 14.7551 6.51888 15.1207 5.72757 15.2676C4.93625 15.4145 4.11673 15.3363 3.3723 15.0427C2.62788 14.7491 1.99189 14.2533 1.54451 13.6178C1.09714 12.9823 0.858398 12.2355 0.858398 11.4717C0.858398 10.7078 1.09714 9.96111 1.54451 9.32561C1.99189 8.69011 2.62788 8.1943 3.3723 7.90069C4.11673 7.60708 4.93625 7.52881 5.72757 7.67575C6.51888 7.82269 7.24655 8.18826 7.81885 8.72638L13.7809 5.6462C13.5764 4.73744 13.7241 3.78933 14.197 2.97523C14.6698 2.16114 15.4362 1.53547 16.356 1.21265C17.2758 0.889823 18.2876 0.891413 19.2063 1.21713C20.1249 1.54284 20.8891 2.17091 21.3591 2.98649C21.8291 3.80206 21.9735 4.75064 21.7658 5.65875C21.5582 6.56687 21.0124 7.37383 20.2282 7.93208C19.4441 8.49032 18.474 8.76255 17.4954 8.69897C16.5167 8.63539 15.595 8.24025 14.8986 7.58582L8.93659 10.666C9.05552 11.1972 9.05552 11.7462 8.93659 12.2774L14.8986 15.3575C15.595 14.7031 16.5167 14.308 17.4954 14.2444C18.474 14.1808 19.4441 14.453 20.2282 15.0113C21.0124 15.5695 21.5582 16.3765 21.7658 17.2846C21.9735 18.1927 21.8291 19.1413 21.3591 19.9569C20.8891 20.7724 20.1249 21.4005 19.2063 21.7262C18.2876 22.0519 17.2758 22.0535 16.356 21.7307C15.4362 21.4079 14.6698 20.7822 14.197 19.9681C13.7241 19.154 13.5764 18.2059 13.7809 17.2972Z" fill="black"/>
</svg>
